<svg xmlns="http://www.w3.org/2000/svg" width="24" height="24" viewBox="0 0 24 24" fill="none">
  <path
    d="M17.7966 1.89102C18.0536 2.136 18.0629 2.26792 17.848 2.56943C16.4181 4.54342 14.9883 6.51269 13.5631 8.48668C13.5117 8.55735 13.4603 8.63274 13.3762 8.7458C13.4837 8.75051 13.5537 8.75523 13.6238 8.75994C14.8574 8.84474 16.091 8.92483 17.3246 9.00963C17.3854 9.00963 17.4508 9.01905 17.5116 9.02376C17.6751 9.03318 17.8059 9.09443 17.8667 9.26404C17.9227 9.42422 17.8667 9.54671 17.7592 9.65977C17.3246 10.1168 16.8901 10.5737 16.4508 11.0307C12.9089 14.7431 9.36231 18.4555 5.82038 22.168C5.74095 22.2528 5.65685 22.3423 5.56807 22.413C5.43723 22.5166 5.2877 22.5354 5.14752 22.4271C5.00734 22.3187 4.9606 22.168 5.03537 21.9984C5.11013 21.8335 5.18957 21.6733 5.269 21.5131C6.68017 18.677 8.08667 15.8456 9.49783 13.0141C9.53054 12.9482 9.56324 12.8775 9.60997 12.7786C9.52119 12.7739 9.44642 12.7692 9.37633 12.7644C8.28759 12.6938 7.19885 12.6184 6.1101 12.5477C5.67554 12.5195 5.54937 12.2792 5.76431 11.9023C7.72218 8.52908 9.68005 5.15589 11.6473 1.78739C11.7127 1.67432 11.8342 1.59422 11.9276 1.5C13.8855 1.63191 15.8434 1.76382 17.8013 1.89102H17.7966Z"
    fill="white" />
</svg>
